<?xml version="1.0" encoding="utf-8"?>
<!-- Generator: Adobe Illustrator 24.2.3, SVG Export Plug-In . SVG Version: 6.00 Build 0)  -->
<svg version="1.1" xmlns="http://www.w3.org/2000/svg" xmlns:xlink="http://www.w3.org/1999/xlink" x="0px" y="0px"
	 viewBox="0 0 500 500" style="enable-background:new 0 0 500 500;" xml:space="preserve">
<style type="text/css">
	.st0{display:none;}
	.st1{display:inline;fill:#121212;}
	.st2{fill:none;}
	.st3{fill:#7000FF;}
	.st4{fill:#FFFFFF;}
	.st5{display:inline;}
	.st6{fill:#312C2B;}
	.st7{fill:#BA3D19;}
	.st8{fill:url(#SVGID_1_);}
	.st9{fill:url(#SVGID_2_);}
	.st10{fill:url(#SVGID_3_);}
	.st11{fill:url(#SVGID_4_);}
	.st12{fill:url(#SVGID_5_);}
	.st13{fill:#D85412;}
	.st14{fill:#F9A7DA;}
	.st15{fill:#E76112;}
	.st16{fill:none;stroke:#FFFFFF;stroke-width:2;stroke-linecap:round;stroke-linejoin:round;stroke-miterlimit:10;}
	.st17{fill:#1E120D;}
</style>
<g id="Background" class="st0">
	<rect class="st1" width="500" height="500"/>
</g>
<g id="Objects">
	<g>
		<path class="st2" d="M409.2,246c0,17.2-13.9,31.1-31.1,31.1h-48.8c-17.2,0-31.1-13.9-31.1-31.1l0,0c0-17.2,13.9-31.1,31.1-31.1
			h48.8C395.3,214.9,409.2,228.8,409.2,246L409.2,246z"/>
		<g>
			<path class="st3" d="M217.5,167.8v16.5h-9v24.8h-16.8v-24.8h-34v-16.3l27.8-133.8h23v133.5H217.5z M191.8,89.3h-0.5l-14.8,78v0.5
				h15.3V89.3z"/>
			<path class="st3" d="M248.8,210.6c-2.8,0-5.7-0.5-8.5-1.5c-2.8-1-5.4-2.5-7.6-4.5s-4-4.6-5.4-7.8c-1.3-3.2-2-7-2-11.5V58.1
				c0-4.5,0.7-8.3,2-11.5c1.3-3.2,3.1-5.8,5.4-7.8s4.8-3.5,7.6-4.5c2.8-1,5.7-1.5,8.5-1.5h4.5c2.8,0,5.7,0.5,8.5,1.5
				c2.8,1,5.4,2.5,7.6,4.5s4,4.6,5.4,7.8c1.3,3.2,2,7,2,11.5v127.3c0,4.5-0.7,8.3-2,11.5c-1.3,3.2-3.1,5.8-5.4,7.8s-4.8,3.5-7.6,4.5
				c-2.8,1-5.7,1.5-8.5,1.5H248.8z M250.5,49.3c-3.8,0-5.8,3.9-5.8,11.8v121.3c0,4.3,0.5,7.4,1.5,9.1s2.4,2.6,4.3,2.6h1
				c1.8,0,3.3-0.9,4.3-2.6s1.5-4.8,1.5-9.1V61.1c0-7.8-1.9-11.8-5.8-11.8H250.5z"/>
			<path class="st3" d="M342.8,167.8v16.5h-9v24.8H317v-24.8h-34v-16.3l27.8-133.8h23v133.5H342.8z M317,89.3h-0.5l-14.8,78v0.5H317
				V89.3z"/>
		</g>
		<g>
			<path class="st4" d="M319.8,257.6c-3.1,0-5.6-1-7.6-3c-2-2-3-4.6-3-7.8c0-3.4,1-6.1,3-8.2s4.6-3.1,7.9-3.1c3.1,0,5.6,1,7.5,3
				c1.9,2,2.9,4.6,2.9,7.9c0,3.4-1,6.1-3,8.1C325.6,256.5,323,257.6,319.8,257.6z M319.9,253.3c1.7,0,3-0.6,4.1-1.8
				c1-1.2,1.5-2.8,1.5-4.9c0-2.2-0.5-3.9-1.5-5.1c-1-1.2-2.3-1.8-4-1.8c-1.7,0-3.1,0.6-4.1,1.9c-1,1.3-1.6,2.9-1.6,5
				c0,2.1,0.5,3.8,1.6,5C316.9,252.7,318.3,253.3,319.9,253.3z"/>
			<path class="st4" d="M343,257.6c-3.1,0-5.6-1-7.6-3c-2-2-3-4.6-3-7.8c0-3.4,1-6.1,3-8.2s4.6-3.1,7.9-3.1c3.1,0,5.6,1,7.5,3
				c1.9,2,2.9,4.6,2.9,7.9c0,3.4-1,6.1-3,8.1C348.8,256.5,346.2,257.6,343,257.6z M343.1,253.3c1.7,0,3-0.6,4.1-1.8
				c1-1.2,1.5-2.8,1.5-4.9c0-2.2-0.5-3.9-1.5-5.1c-1-1.2-2.3-1.8-4-1.8c-1.7,0-3.1,0.6-4.1,1.9c-1,1.3-1.6,2.9-1.6,5
				c0,2.1,0.5,3.8,1.6,5C340.2,252.7,341.5,253.3,343.1,253.3z"/>
			<path class="st4" d="M361.9,250.2v7H357v-21.4h7.4c2.7,0,4.7,0.6,6.1,1.7c1.4,1.2,2.1,2.9,2.1,5.2c0,2.4-0.8,4.2-2.3,5.5
				c-1.6,1.3-3.7,2-6.3,2H361.9z M361.9,239.5v7h2c1.2,0,2.1-0.3,2.8-0.9c0.6-0.6,1-1.5,1-2.7c0-1.1-0.3-1.9-0.9-2.5
				c-0.6-0.6-1.5-0.9-2.7-0.9H361.9z"/>
			<path class="st4" d="M374.4,253l4.1-2.1c0.5,0.9,1.1,1.6,1.8,2c0.7,0.4,1.6,0.7,2.4,0.7c1.1,0,1.9-0.2,2.4-0.6
				c0.5-0.4,0.8-1,0.8-1.7c0-0.7-0.3-1.3-0.9-1.8c-0.6-0.4-1.5-0.8-2.7-1c-2.4-0.5-4.1-1.2-5.2-2.2c-1.1-1-1.7-2.4-1.7-4.2
				c0-2,0.7-3.6,2.1-4.9c1.4-1.2,3.3-1.8,5.7-1.8c1.6,0,3,0.3,4.2,1c1.2,0.6,2.1,1.6,2.8,2.8l-4,2c-0.4-0.7-0.9-1.2-1.4-1.5
				c-0.5-0.3-1.2-0.5-2-0.5c-0.9,0-1.7,0.2-2.2,0.6c-0.5,0.4-0.8,0.9-0.8,1.5c0,0.6,0.2,1.1,0.7,1.5c0.5,0.4,1.4,0.7,2.8,0.9
				c2.3,0.4,4,1.2,5.1,2.3s1.7,2.6,1.7,4.5c0,2.1-0.7,3.8-2,5.1s-3.3,1.9-5.8,1.9c-1.8,0-3.5-0.4-4.9-1.2S375.2,254.4,374.4,253z"/>
			<path class="st4" d="M396.3,257.5c-0.8,0-1.5-0.3-2-0.8c-0.5-0.5-0.8-1.2-0.8-1.9c0-0.8,0.3-1.4,0.8-1.9c0.5-0.5,1.2-0.8,2-0.8
				c0.8,0,1.4,0.3,2,0.8c0.5,0.5,0.8,1.1,0.8,1.9c0,0.8-0.3,1.4-0.8,1.9C397.8,257.3,397.2,257.5,396.3,257.5z M398.8,235.8
				l-0.6,14.5h-3.8l-0.6-14.5H398.8z"/>
		</g>
		<g class="st0">
			<path class="st5" d="M163.5,437c1.1-0.2,2.6-0.3,4.4-0.3c2.3,0,3.9,0.5,5,1.5c1,0.8,1.6,2.1,1.6,3.7c0,1.6-0.5,2.9-1.4,3.8
				c-1.2,1.3-3.2,2-5.5,2c-0.7,0-1.3,0-1.9-0.2v7.2h-2.3V437z M165.8,445.6c0.5,0.1,1.1,0.2,1.9,0.2c2.8,0,4.5-1.4,4.5-3.8
				c0-2.4-1.7-3.5-4.2-3.5c-1,0-1.8,0.1-2.2,0.2V445.6z"/>
			<path class="st5" d="M183.9,454.7l-0.2-1.6h-0.1c-0.7,1-2.1,1.9-3.9,1.9c-2.6,0-3.9-1.8-3.9-3.7c0-3.1,2.8-4.8,7.7-4.8v-0.3
				c0-1.1-0.3-3-2.9-3c-1.2,0-2.4,0.4-3.3,1l-0.5-1.5c1.1-0.7,2.6-1.1,4.2-1.1c3.9,0,4.9,2.7,4.9,5.2v4.8c0,1.1,0.1,2.2,0.2,3.1
				H183.9z M183.6,448.1c-2.5-0.1-5.4,0.4-5.4,2.9c0,1.5,1,2.2,2.2,2.2c1.7,0,2.7-1.1,3.1-2.1c0.1-0.2,0.1-0.5,0.1-0.7V448.1z"/>
			<path class="st5" d="M200.6,441.9c-0.1,0.9-0.1,2-0.1,3.5v7.4c0,2.9-0.6,4.7-1.8,5.9c-1.2,1.2-3,1.5-4.7,1.5
				c-1.5,0-3.2-0.4-4.3-1.1l0.6-1.8c0.8,0.5,2.2,1,3.8,1c2.4,0,4.1-1.2,4.1-4.5v-1.4h-0.1c-0.7,1.2-2.1,2.1-4.1,2.1
				c-3.2,0-5.5-2.7-5.5-6.3c0-4.3,2.8-6.8,5.8-6.8c2.2,0,3.4,1.2,4,2.2h0.1l0.1-1.9H200.6z M198.2,446.9c0-0.4,0-0.7-0.1-1.1
				c-0.4-1.4-1.6-2.5-3.3-2.5c-2.2,0-3.8,1.9-3.8,4.8c0,2.5,1.3,4.6,3.8,4.6c1.4,0,2.7-0.9,3.2-2.4c0.1-0.4,0.2-0.8,0.2-1.2V446.9z"
				/>
			<path class="st5" d="M205.7,448.7c0.1,3.2,2.1,4.5,4.4,4.5c1.7,0,2.7-0.3,3.5-0.7l0.4,1.7c-0.8,0.4-2.2,0.8-4.3,0.8
				c-3.9,0-6.3-2.6-6.3-6.5c0-3.9,2.3-6.9,6-6.9c4.2,0,5.3,3.7,5.3,6c0,0.5-0.1,0.8-0.1,1.1H205.7z M212.5,447
				c0-1.5-0.6-3.8-3.2-3.8c-2.4,0-3.4,2.2-3.6,3.8H212.5z"/>
			<path class="st5" d="M223.3,445.3c0-1.3,0-2.4-0.1-3.5h2.1l0.1,2.1h0.1c0.6-1.2,2.1-2.4,4.2-2.4c1.8,0,4.5,1.1,4.5,5.5v7.7h-2.3
				v-7.4c0-2.1-0.8-3.8-3-3.8c-1.5,0-2.7,1.1-3.1,2.4c-0.1,0.3-0.2,0.7-0.2,1.1v7.7h-2.3V445.3z"/>
			<path class="st5" d="M249.6,448.2c0,4.7-3.3,6.8-6.4,6.8c-3.5,0-6.1-2.5-6.1-6.6c0-4.3,2.8-6.8,6.4-6.8
				C247.1,441.6,249.6,444.2,249.6,448.2z M239.4,448.3c0,2.8,1.6,4.9,3.9,4.9c2.2,0,3.9-2.1,3.9-5c0-2.2-1.1-4.9-3.8-4.9
				S239.4,445.9,239.4,448.3z"/>
			<path class="st5" d="M255.3,438.2v3.7h3.3v1.8h-3.3v6.9c0,1.6,0.5,2.5,1.7,2.5c0.6,0,1.1-0.1,1.4-0.2l0.1,1.7
				c-0.5,0.2-1.2,0.3-2.1,0.3c-1.1,0-2-0.3-2.5-1c-0.7-0.7-0.9-1.8-0.9-3.3v-7h-2v-1.8h2v-3.1L255.3,438.2z"/>
			<path class="st5" d="M267.2,454.7v-11h-1.8v-1.8h1.8v-0.6c0-1.8,0.4-3.4,1.5-4.5c0.9-0.8,2-1.2,3.1-1.2c0.8,0,1.5,0.2,2,0.4
				l-0.3,1.8c-0.3-0.2-0.8-0.3-1.5-0.3c-2,0-2.5,1.7-2.5,3.7v0.7h3.1v1.8h-3.1v11H267.2z"/>
			<path class="st5" d="M285.9,448.2c0,4.7-3.3,6.8-6.4,6.8c-3.5,0-6.1-2.5-6.1-6.6c0-4.3,2.8-6.8,6.4-6.8
				C283.4,441.6,285.9,444.2,285.9,448.2z M275.7,448.3c0,2.8,1.6,4.9,3.9,4.9c2.2,0,3.9-2.1,3.9-5c0-2.2-1.1-4.9-3.8-4.9
				C276.9,443.3,275.7,445.9,275.7,448.3z"/>
			<path class="st5" d="M299.6,451.2c0,1.3,0,2.5,0.1,3.5h-2.1l-0.1-2.1h-0.1c-0.6,1-2,2.4-4.2,2.4c-2,0-4.4-1.1-4.4-5.6v-7.5h2.3
				v7.1c0,2.4,0.7,4.1,2.9,4.1c1.6,0,2.6-1.1,3.1-2.1c0.1-0.3,0.2-0.8,0.2-1.2v-7.9h2.3V451.2z"/>
			<path class="st5" d="M303.4,445.3c0-1.3,0-2.4-0.1-3.5h2.1l0.1,2.1h0.1c0.6-1.2,2.1-2.4,4.2-2.4c1.8,0,4.5,1.1,4.5,5.5v7.7H312
				v-7.4c0-2.1-0.8-3.8-3-3.8c-1.5,0-2.7,1.1-3.1,2.4c-0.1,0.3-0.2,0.7-0.2,1.1v7.7h-2.3V445.3z"/>
			<path class="st5" d="M329.2,435.9v15.5c0,1.1,0,2.4,0.1,3.3h-2.1l-0.1-2.2h-0.1c-0.7,1.4-2.3,2.5-4.4,2.5c-3.1,0-5.5-2.6-5.5-6.5
				c0-4.3,2.6-6.9,5.7-6.9c2,0,3.3,0.9,3.9,2h0.1v-7.7H329.2z M326.9,447.1c0-0.3,0-0.7-0.1-1c-0.3-1.5-1.6-2.7-3.4-2.7
				c-2.4,0-3.8,2.1-3.8,5c0,2.6,1.3,4.7,3.8,4.7c1.6,0,3-1,3.4-2.8c0.1-0.3,0.1-0.6,0.1-1V447.1z"/>
		</g>
		<g>
			<g>
				<g>
					<path d="M361.2,416.3c0,0,0.2,2,0.1,4.1c-0.2,2.7-3,2.7-3,2.7H144.1c0,0-2.6,0-3.2-0.7c-1.1-1.4-0.4-6.1-0.4-6.1
						c-0.1,1,1.1,2.3,3.7,2.4h213.3C359.2,418.6,361.2,417.4,361.2,416.3L361.2,416.3z"/>
					<path class="st6" d="M361.1,415.7c0.1,0.2,0.1,0.4,0.1,0.5c-0.1,1.1-2,2.3-3.7,2.3H144.2c-2.6-0.1-3.9-1.4-3.7-2.4
						c0-0.2,0.1-0.3,0.2-0.4c0.6-1.1,21.4-29.9,21.4-29.9c2.6-2.6,8.8-2.9,10.8-2.9h156.1c2,0,8.6,0.1,10.8,2.9
						C339.7,385.8,360.4,414.5,361.1,415.7z"/>
				</g>
				<g>
					<path class="st7" d="M331.6,395.9c0.1,5.5-35.9,18.4-80.1,18.4c-44.2,0-79.7-12.8-80.1-18.4c-0.1-2.3,1.6-4.5,4.9-6.5l0.1,0
						c-1.1,4-1.7,6.2-1.7,6.2s20.6,15.7,76.4,15.7c55.8,0,75.8-15.7,75.8-15.7s-0.7-2.4-1.9-6.8l0.2-0.1
						C329.3,391,331.6,393.4,331.6,395.9z"/>
					<linearGradient id="SVGID_1_" gradientUnits="userSpaceOnUse" x1="209.5182" y1="256.2072" x2="291.9088" y2="256.2072">
						<stop  offset="0" style="stop-color:#FFFFFF"/>
						<stop  offset="0.6347" style="stop-color:#FDFDFD"/>
						<stop  offset="0.8631" style="stop-color:#F6F7F8"/>
						<stop  offset="1" style="stop-color:#EDEEF0"/>
					</linearGradient>
					<path class="st8" d="M291.9,271.5l-0.2,0c0,0-15.2,5.1-41.2,4.7c-24.3-0.3-40.9-4.7-40.9-4.7l-0.1,0c3.4-12,6.7-23.7,9.8-34.6
						l0.4,0.1c0,0,13.9,2.7,31.3,2.4c16.7-0.3,30.5-3.4,30.5-3.4l0.1,0C285,247.2,288.4,259.2,291.9,271.5z"/>
					<linearGradient id="SVGID_2_" gradientUnits="userSpaceOnUse" x1="185.6002" y1="336.783" x2="315.6509" y2="336.783">
						<stop  offset="0" style="stop-color:#FFFFFF"/>
						<stop  offset="0.6347" style="stop-color:#FDFDFD"/>
						<stop  offset="0.8631" style="stop-color:#F6F7F8"/>
						<stop  offset="1" style="stop-color:#EDEEF0"/>
					</linearGradient>
					<path class="st9" d="M315.7,355.3l-0.2,0.1c0,0-25.3,9.5-67.6,9.5c-40.2,0-61.8-8.1-61.8-8.1l-0.4-0.1
						c3.9-13.8,8.4-30.2,13.3-47.3l0.3,0.1c0,0,21.6,4.7,51,4.7c29.4,0,52-5.4,52-5.4l0.2-0.1C307.2,325.5,311.8,341.6,315.7,355.3z
						"/>
					<linearGradient id="SVGID_3_" gradientUnits="userSpaceOnUse" x1="226.0739" y1="205.3387" x2="278.3684" y2="215.3221">
						<stop  offset="0" style="stop-color:#F09319"/>
						<stop  offset="3.028780e-02" style="stop-color:#EF8E18"/>
						<stop  offset="0.198" style="stop-color:#EC7A16"/>
						<stop  offset="0.3884" style="stop-color:#E96C14"/>
						<stop  offset="0.6189" style="stop-color:#E76412"/>
						<stop  offset="1" style="stop-color:#E76112"/>
					</linearGradient>
					<path class="st10" d="M281.8,236.1l-0.1,0c0,0-13.8,3.1-30.5,3.4c-17.5,0.3-31.3-2.4-31.3-2.4l-0.4-0.1
						c9.2-32.2,16.4-56.9,17.2-57.2c0,0,5.2-0.6,14.7-1.1c6-0.3,13.8,1.1,13.8,1.1C265.7,180.3,272.5,204,281.8,236.1z"/>
					<linearGradient id="SVGID_4_" gradientUnits="userSpaceOnUse" x1="198.8526" y1="292.8604" x2="302.4663" y2="292.8604">
						<stop  offset="0" style="stop-color:#F09319"/>
						<stop  offset="0.1963" style="stop-color:#EC7D16"/>
						<stop  offset="0.4168" style="stop-color:#E96D14"/>
						<stop  offset="0.6656" style="stop-color:#E86412"/>
						<stop  offset="1" style="stop-color:#E76112"/>
					</linearGradient>
					<path class="st11" d="M302.5,308.7l-0.2,0.1c0,0-22.6,5.4-52,5.4c-29.4,0-51-4.7-51-4.7l-0.3-0.1c3.5-12.4,7.1-25.3,10.7-37.8
						l0.1,0c0,0,16.6,4.4,40.9,4.7c26,0.4,41.2-4.7,41.2-4.7l0.2,0C295.4,283.9,299,296.5,302.5,308.7z"/>
					<linearGradient id="SVGID_5_" gradientUnits="userSpaceOnUse" x1="174.7501" y1="383.3303" x2="326.9761" y2="383.3303">
						<stop  offset="0" style="stop-color:#F09319"/>
						<stop  offset="5.210739e-02" style="stop-color:#EE8A18"/>
						<stop  offset="0.1849" style="stop-color:#EB7715"/>
						<stop  offset="0.3435" style="stop-color:#E96B13"/>
						<stop  offset="0.5518" style="stop-color:#E76312"/>
						<stop  offset="1" style="stop-color:#E76112"/>
					</linearGradient>
					<path class="st12" d="M325.1,388.8c1.2,4.4,1.9,6.8,1.9,6.8s-19.9,15.7-75.8,15.7c-55.8,0-76.4-15.7-76.4-15.7s0.6-2.2,1.7-6.2
						c1.9-6.7,5.1-18.3,9.1-32.8l0.4,0.1c0,0,21.6,8.1,61.8,8.1c42.2,0,67.6-9.5,67.6-9.5l0.2-0.1
						C319.8,370,323.1,381.9,325.1,388.8z"/>
					<path class="st13" d="M265,179.8c0,1-6.4,1.9-14.2,1.9c-7.9,0-14.2-0.8-14.2-1.9c0-1,6.4-1.9,14.2-1.9
						C258.6,177.9,265,178.7,265,179.8z"/>
				</g>
			</g>
			<path d="M232.5,332.2c0-1.9-1.6-3.5-3.5-3.5c-1.9,0-3.5,1.6-3.5,3.5c0,1.9,1.6,3.5,3.5,3.5C230.9,335.7,232.5,334.1,232.5,332.2z
				"/>
			<path d="M274.1,332.2c0-1.9-1.6-3.5-3.5-3.5c-1.9,0-3.5,1.6-3.5,3.5c0,1.9,1.6,3.5,3.5,3.5C272.6,335.7,274.1,334.1,274.1,332.2z
				"/>
			<circle class="st14" cx="223.3" cy="345.2" r="7.9"/>
			<path class="st14" d="M287.3,345.5c0-4.4-3.5-7.9-7.9-7.9s-7.9,3.5-7.9,7.9c0,4.4,3.5,7.9,7.9,7.9S287.3,349.9,287.3,345.5z"/>
			<path class="st15" d="M230,323.3c-0.4-1.3-2.3-1-3.5-0.3c-1.3,0.8-2.3,2.4-1.7,3.1C225.6,326.9,230.5,325.1,230,323.3z"/>
			<path class="st15" d="M269.7,323.1c0.4-1.3,2.3-1,3.5-0.3c1.3,0.8,2.3,2.4,1.7,3.1C274.1,326.6,269.2,324.8,269.7,323.1z"/>
			<path d="M253,337.8c0,1.6-1,3-2.2,3c-1.2,0-2.2-1.3-2.2-3c0-1.6,1-3,2.2-3C252,334.8,253,336.2,253,337.8z"/>
		</g>
		<path class="st16" d="M344.3,268.5c0,0,2.5,36.1-26.6,43.1"/>
	</g>
</g>
<g id="Designed_by_Freepik" class="st0">
	<g class="st5">
		<g>
			<path class="st17" d="M175.9,457.9c-0.1-0.2-0.3-0.3-0.6-0.3c-0.3,0-0.5,0.1-0.6,0.3c-0.1,0.2-0.2,0.5-0.2,0.8v2.6
				c-0.3-0.4-0.7-0.6-1-0.8c-0.4-0.2-0.8-0.3-1.3-0.3c-0.9,0-1.6,0.3-2.1,0.9c-0.5,0.6-0.8,1.5-0.8,2.6c0,0.5,0.1,1,0.2,1.4
				c0.1,0.5,0.3,0.8,0.6,1.2c0.3,0.3,0.6,0.6,0.9,0.8c0.4,0.2,0.7,0.3,1.2,0.3c0.3,0,0.6,0,0.9-0.1c0.3-0.1,0.5-0.2,0.8-0.4
				c0.2-0.2,0.5-0.4,0.7-0.7v0.2c0,0.3,0.1,0.6,0.2,0.8c0.2,0.2,0.4,0.3,0.6,0.3c0.2,0,0.4-0.1,0.6-0.3c0.1-0.2,0.2-0.4,0.2-0.8
				v-7.8C176.1,458.4,176,458.1,175.9,457.9z M174.1,465.1c-0.1,0.3-0.4,0.6-0.6,0.7c-0.3,0.2-0.5,0.2-0.8,0.2
				c-0.3,0-0.6-0.1-0.9-0.3c-0.3-0.2-0.5-0.4-0.6-0.8c-0.1-0.3-0.2-0.7-0.2-1.2c0-0.5,0.1-0.8,0.2-1.2c0.1-0.3,0.3-0.6,0.6-0.8
				c0.3-0.2,0.5-0.3,0.9-0.3c0.3,0,0.6,0.1,0.9,0.3c0.3,0.2,0.5,0.4,0.6,0.8c0.2,0.3,0.2,0.7,0.2,1.2
				C174.3,464.4,174.3,464.8,174.1,465.1z"/>
			<path class="st17" d="M182.9,465c-0.2,0-0.3,0-0.4,0.1c-0.2,0.2-0.4,0.4-0.5,0.5c-0.1,0.1-0.3,0.2-0.5,0.3
				c-0.2,0.1-0.3,0.2-0.5,0.2c-0.2,0.1-0.4,0.1-0.6,0.1c-0.3,0-0.6-0.1-0.9-0.2c-0.3-0.2-0.5-0.4-0.6-0.7c-0.2-0.3-0.2-0.7-0.2-1
				h3.4c0.5,0,0.8-0.1,1.1-0.2c0.3-0.1,0.4-0.4,0.4-0.9c0-0.5-0.1-0.9-0.4-1.4c-0.2-0.5-0.6-0.8-1.1-1.1c-0.5-0.3-1.1-0.4-1.8-0.4
				c-0.5,0-1,0.1-1.4,0.3c-0.4,0.2-0.8,0.4-1.1,0.7c-0.3,0.3-0.5,0.7-0.7,1.1c-0.2,0.4-0.2,0.9-0.2,1.4c0,1.1,0.3,2,0.9,2.6
				c0.6,0.6,1.5,1,2.6,1c0.5,0,0.9-0.1,1.3-0.2c0.4-0.1,0.7-0.3,0.9-0.5c0.3-0.2,0.4-0.4,0.6-0.6c0.1-0.2,0.2-0.4,0.2-0.6
				c0-0.2,0-0.3-0.2-0.4C183.2,465.1,183.1,465,182.9,465z M179.2,462c0.3-0.3,0.6-0.4,1.1-0.4c0.5,0,0.8,0.1,1.1,0.4
				c0.3,0.3,0.4,0.8,0.5,1.4h-3.2C178.8,462.7,179,462.3,179.2,462z"/>
			<path class="st17" d="M189.9,464.3c-0.2-0.3-0.4-0.5-0.8-0.6c-0.3-0.2-0.8-0.4-1.3-0.5c-0.5-0.1-0.8-0.2-1.1-0.3
				c-0.3-0.1-0.5-0.2-0.6-0.3c-0.1-0.1-0.2-0.3-0.2-0.5c0-0.2,0.1-0.4,0.3-0.5c0.2-0.1,0.5-0.2,0.8-0.2c0.3,0,0.5,0.1,0.7,0.2
				c0.2,0.1,0.3,0.2,0.5,0.4c0.2,0.2,0.3,0.4,0.4,0.5c0.1,0.1,0.3,0.2,0.5,0.2c0.3,0,0.4-0.1,0.6-0.2c0.1-0.1,0.2-0.3,0.2-0.5
				c0-0.2-0.1-0.4-0.2-0.6c-0.1-0.2-0.3-0.4-0.5-0.5c-0.2-0.2-0.5-0.3-0.9-0.4c-0.4-0.1-0.8-0.1-1.2-0.1c-0.6,0-1.1,0.1-1.5,0.3
				c-0.4,0.2-0.7,0.4-0.9,0.8c-0.2,0.3-0.3,0.7-0.3,1c0,0.4,0.1,0.7,0.3,1c0.2,0.3,0.5,0.5,0.9,0.7c0.4,0.2,0.9,0.3,1.5,0.5
				c0.5,0.1,0.9,0.3,1.1,0.4c0.2,0.1,0.4,0.4,0.4,0.7c0,0.2-0.1,0.4-0.3,0.5c-0.2,0.2-0.5,0.2-0.9,0.2c-0.4,0-0.8-0.1-1-0.2
				c-0.3-0.2-0.5-0.4-0.7-0.7c-0.1-0.2-0.2-0.3-0.3-0.4c-0.1-0.1-0.2-0.1-0.4-0.1c-0.2,0-0.4,0.1-0.5,0.2c-0.1,0.1-0.2,0.3-0.2,0.5
				c0,0.3,0.1,0.6,0.3,0.9c0.2,0.3,0.6,0.5,1,0.7c0.5,0.2,1,0.3,1.6,0.3c0.7,0,1.2-0.1,1.7-0.3c0.5-0.2,0.8-0.4,1-0.8
				c0.2-0.3,0.4-0.8,0.4-1.2C190.2,464.8,190.1,464.5,189.9,464.3z"/>
			<path class="st17" d="M192.6,460.6c-0.2-0.2-0.4-0.3-0.6-0.3c-0.3,0-0.5,0.1-0.6,0.3c-0.2,0.2-0.2,0.4-0.2,0.8v5
				c0,0.3,0.1,0.6,0.2,0.8c0.2,0.2,0.4,0.3,0.6,0.3c0.3,0,0.5-0.1,0.6-0.3c0.2-0.2,0.3-0.5,0.3-0.8v-5.1
				C192.8,461,192.8,460.7,192.6,460.6z M192.6,458c-0.2-0.1-0.4-0.2-0.6-0.2c-0.2,0-0.4,0.1-0.6,0.3c-0.2,0.2-0.3,0.4-0.3,0.6
				c0,0.3,0.1,0.5,0.3,0.6c0.2,0.1,0.4,0.2,0.6,0.2c0.2,0,0.4-0.1,0.6-0.2c0.2-0.2,0.3-0.4,0.3-0.6
				C192.8,458.3,192.8,458.1,192.6,458z"/>
			<path class="st17" d="M200.4,460.6c-0.1-0.2-0.3-0.3-0.7-0.3c-0.2,0-0.4,0.1-0.6,0.3c-0.1,0.2-0.2,0.4-0.2,0.7v0.2
				c-0.3-0.4-0.6-0.7-1-0.9c-0.4-0.2-0.8-0.3-1.3-0.3c-0.4,0-0.8,0.1-1.1,0.2c-0.4,0.1-0.6,0.4-0.9,0.7c-0.3,0.3-0.5,0.7-0.6,1.1
				c-0.2,0.4-0.2,0.9-0.2,1.4c0,0.7,0.1,1.3,0.4,1.9c0.2,0.5,0.6,1,1,1.3c0.4,0.3,0.9,0.5,1.5,0.5c0.5,0,0.9-0.1,1.3-0.3
				c0.4-0.2,0.7-0.5,0.9-0.9c0,0.6,0,1,0,1.3c0,0.3-0.1,0.5-0.2,0.7c-0.1,0.2-0.3,0.4-0.5,0.5c-0.3,0.1-0.6,0.2-1.1,0.2
				c-0.2,0-0.4,0-0.6-0.1c-0.2,0-0.3-0.1-0.4-0.2c-0.1-0.1-0.2-0.2-0.3-0.3c-0.1-0.1-0.2-0.2-0.3-0.3c-0.2-0.2-0.4-0.3-0.7-0.3
				c-0.2,0-0.4,0.1-0.5,0.2c-0.1,0.1-0.2,0.3-0.2,0.5c0,0.3,0.1,0.5,0.4,0.8c0.3,0.3,0.6,0.5,1.1,0.7c0.5,0.2,1,0.3,1.6,0.3
				c0.7,0,1.2-0.1,1.6-0.2c0.4-0.1,0.8-0.3,1.1-0.6c0.3-0.3,0.5-0.6,0.6-1c0.1-0.4,0.2-0.9,0.2-1.5v-5.1
				C200.5,461.2,200.5,460.9,200.4,460.6z M198.6,465c-0.2,0.3-0.4,0.6-0.6,0.7c-0.3,0.2-0.5,0.2-0.8,0.2c-0.5,0-0.9-0.2-1.2-0.5
				c-0.3-0.4-0.5-0.9-0.5-1.6c0-0.7,0.1-1.3,0.5-1.6c0.3-0.4,0.7-0.6,1.2-0.6c0.5,0,0.9,0.2,1.2,0.6c0.3,0.4,0.5,1,0.5,1.7
				C198.8,464.3,198.7,464.7,198.6,465z"/>
			<path class="st17" d="M207.9,462.2c0-0.2-0.1-0.5-0.2-0.7c-0.2-0.4-0.5-0.6-0.8-0.9c-0.4-0.2-0.8-0.3-1.2-0.3
				c-0.5,0-0.9,0.1-1.3,0.3c-0.1,0-0.2,0.1-0.3,0.2c-0.3,0.2-0.5,0.4-0.7,0.7v-0.2c0-0.2,0-0.4-0.1-0.5c-0.1-0.1-0.2-0.3-0.3-0.3
				c-0.1-0.1-0.3-0.1-0.4-0.1c-0.3,0-0.4,0.1-0.6,0.3c-0.2,0.2-0.2,0.4-0.2,0.8v5.1c0,0.3,0.1,0.6,0.3,0.8c0.2,0.2,0.4,0.3,0.6,0.3
				c0.3,0,0.5-0.1,0.6-0.3c0.2-0.2,0.3-0.5,0.3-0.8v-2.2c0-0.7,0-1.2,0.1-1.5c0.1-0.3,0.3-0.6,0.6-0.8c0.3-0.2,0.5-0.3,0.9-0.3
				c0.5,0,0.8,0.2,1,0.5c0.2,0.3,0.2,0.8,0.2,1.3v2.9c0,0.3,0.1,0.6,0.3,0.8c0.2,0.2,0.4,0.3,0.6,0.3c0.3,0,0.5-0.1,0.6-0.3
				c0.2-0.2,0.3-0.5,0.3-0.8v-3.3C208,462.7,207.9,462.4,207.9,462.2z"/>
			<path class="st17" d="M214.8,465c-0.2,0-0.3,0-0.4,0.1c-0.2,0.2-0.4,0.4-0.5,0.5c-0.1,0.1-0.3,0.2-0.5,0.3
				c-0.2,0.1-0.3,0.2-0.5,0.2c-0.2,0.1-0.4,0.1-0.5,0.1h0c0,0,0,0,0,0c-0.3,0-0.6-0.1-0.9-0.2c-0.3-0.2-0.5-0.4-0.6-0.7
				c0-0.1-0.1-0.1-0.1-0.2v0c-0.1-0.3-0.2-0.6-0.2-0.9h3.4c0.5,0,0.8-0.1,1.1-0.2c0.3-0.1,0.4-0.4,0.4-0.9c0-0.5-0.1-0.9-0.4-1.4
				c-0.2-0.5-0.6-0.8-1.1-1.1c-0.5-0.3-1.1-0.4-1.8-0.4c-0.5,0-1,0.1-1.4,0.3c-0.4,0.2-0.8,0.4-1.1,0.7c-0.3,0.3-0.5,0.7-0.7,1.1
				c-0.2,0.4-0.2,0.9-0.2,1.4c0,1.1,0.3,2,0.9,2.6c0.6,0.6,1.5,1,2.6,1c0.5,0,0.9-0.1,1.3-0.2c0,0,0,0,0,0c0.4-0.1,0.7-0.3,0.9-0.5
				c0.3-0.2,0.4-0.4,0.6-0.6c0.1-0.2,0.2-0.4,0.2-0.6c0-0.2-0.1-0.3-0.2-0.4C215.1,465.1,214.9,465,214.8,465z M211.1,462
				c0.3-0.3,0.6-0.4,1.1-0.4c0.5,0,0.8,0.1,1.1,0.4c0.3,0.3,0.5,0.8,0.5,1.4h-3.2C210.6,462.7,210.8,462.3,211.1,462z"/>
			<path class="st17" d="M222.6,457.9c-0.1-0.2-0.4-0.3-0.6-0.3c-0.3,0-0.5,0.1-0.6,0.3c-0.1,0.2-0.2,0.5-0.2,0.8v2.6
				c-0.3-0.4-0.7-0.6-1-0.8c-0.4-0.2-0.8-0.3-1.3-0.3c-0.9,0-1.6,0.3-2.1,0.9c-0.5,0.6-0.8,1.5-0.8,2.6c0,0.5,0.1,1,0.2,1.4
				c0.1,0.5,0.3,0.8,0.6,1.2c0.3,0.3,0.6,0.6,0.9,0.8c0.4,0.2,0.8,0.3,1.2,0.3c0.3,0,0.6,0,0.9-0.1c0.3-0.1,0.5-0.2,0.8-0.4
				c0.2-0.2,0.5-0.4,0.7-0.7v0.2c0,0.3,0.1,0.6,0.2,0.8c0.2,0.2,0.4,0.3,0.6,0.3c0.2,0,0.4-0.1,0.6-0.3c0.2-0.2,0.2-0.4,0.2-0.8
				v-7.8C222.9,458.4,222.8,458.1,222.6,457.9z M220.9,465.1c-0.1,0.3-0.4,0.6-0.6,0.7c-0.3,0.2-0.5,0.2-0.8,0.2
				c-0.3,0-0.6-0.1-0.8-0.3c-0.3-0.2-0.5-0.4-0.6-0.8c-0.1-0.3-0.2-0.7-0.2-1.2c0-0.5,0.1-0.8,0.2-1.2c0.1-0.3,0.3-0.6,0.6-0.8
				c0.3-0.2,0.5-0.3,0.9-0.3c0.3,0,0.6,0.1,0.9,0.3c0.3,0.2,0.5,0.4,0.6,0.8c0.1,0.3,0.2,0.7,0.2,1.2
				C221.1,464.4,221,464.8,220.9,465.1z"/>
			<path class="st17" d="M233.2,461.9c-0.2-0.5-0.6-0.9-1-1.2c-0.4-0.3-1-0.4-1.5-0.4c-0.5,0-0.9,0.1-1.3,0.3
				c-0.4,0.2-0.7,0.4-1,0.8v-2.7c0-0.3-0.1-0.6-0.2-0.7c-0.2-0.2-0.4-0.3-0.6-0.3c-0.3,0-0.5,0.1-0.6,0.3c-0.1,0.2-0.2,0.5-0.2,0.8
				v7.7c0,0.3,0.1,0.6,0.2,0.8c0.1,0.2,0.3,0.3,0.6,0.3s0.4-0.1,0.6-0.3c0.2-0.2,0.2-0.4,0.2-0.8v-0.2c0.2,0.2,0.4,0.4,0.5,0.5
				c0.1,0.1,0.3,0.2,0.4,0.3c0.2,0.1,0.4,0.2,0.6,0.3c0.2,0.1,0.5,0.1,0.8,0.1c0.4,0,0.9-0.1,1.2-0.3c0.4-0.2,0.7-0.4,0.9-0.8
				c0.3-0.3,0.5-0.7,0.6-1.1c0.1-0.5,0.2-0.9,0.2-1.5C233.6,463.1,233.5,462.5,233.2,461.9z M231.3,465.5c-0.3,0.4-0.7,0.6-1.1,0.6
				c-0.5,0-0.9-0.2-1.3-0.6c-0.3-0.4-0.5-0.9-0.5-1.6c0-0.5,0.1-0.9,0.2-1.2c0.1-0.4,0.4-0.6,0.6-0.8c0.3-0.2,0.6-0.3,0.9-0.3
				c0.3,0,0.6,0.1,0.8,0.3c0.3,0.2,0.4,0.4,0.6,0.8c0.1,0.3,0.2,0.7,0.2,1.2C231.8,464.6,231.7,465.1,231.3,465.5z"/>
			<path class="st17" d="M240,460.7c-0.1-0.1-0.2-0.2-0.3-0.3c-0.1-0.1-0.3-0.1-0.4-0.1c-0.2,0-0.3,0-0.4,0.1
				c-0.1,0.1-0.2,0.2-0.3,0.4c-0.1,0.2-0.2,0.4-0.3,0.8l-1.4,4l-1.5-4.3c-0.1-0.3-0.2-0.5-0.3-0.7c-0.1-0.2-0.3-0.2-0.6-0.2
				c-0.1,0-0.3,0-0.4,0.1c-0.1,0.1-0.3,0.2-0.3,0.3c-0.1,0.1-0.1,0.3-0.1,0.4c0,0.1,0.1,0.4,0.2,0.7l2.2,5.4l-0.2,0.4
				c-0.1,0.3-0.2,0.5-0.3,0.7c-0.1,0.2-0.2,0.3-0.3,0.3c-0.1,0.1-0.3,0.1-0.5,0.1c-0.1,0-0.2,0-0.3,0c-0.1,0-0.2,0-0.3,0
				c-0.2,0-0.4,0.1-0.5,0.2c-0.1,0.1-0.2,0.3-0.2,0.5c0,0.3,0.1,0.5,0.4,0.6c0.3,0.1,0.6,0.2,1.2,0.2c0.5,0,0.9-0.1,1.3-0.2
				c0.3-0.2,0.6-0.4,0.8-0.7c0.2-0.3,0.4-0.7,0.6-1.2l2.3-6c0-0.2,0.1-0.3,0.1-0.5c0-0.1,0.1-0.3,0.1-0.3
				C240.1,460.9,240.1,460.8,240,460.7z"/>
		</g>
		<g>
			<path class="st17" d="M261.3,460.5h0.4v-0.5c0-0.6,0.1-1,0.2-1.3c0.1-0.3,0.4-0.6,0.7-0.7c0.3-0.1,0.8-0.2,1.4-0.2
				c1,0,1.5,0.2,1.5,0.8c0,0.2-0.1,0.3-0.2,0.4c-0.1,0.1-0.2,0.2-0.4,0.2c-0.1,0-0.2,0-0.4,0c-0.2,0-0.3,0-0.4,0
				c-0.3,0-0.5,0.1-0.6,0.3c-0.1,0.2-0.1,0.5-0.1,0.8v0.4h0.4c0.7,0,1,0.2,1,0.6c0,0.3-0.1,0.5-0.3,0.5c-0.2,0.1-0.4,0.1-0.7,0.1
				h-0.4v4.7c0,0.3-0.1,0.6-0.3,0.8c-0.2,0.2-0.4,0.3-0.6,0.3c-0.2,0-0.5-0.1-0.6-0.3c-0.2-0.2-0.2-0.4-0.2-0.8v-4.7h-0.5
				c-0.3,0-0.5-0.1-0.6-0.2c-0.1-0.1-0.2-0.3-0.2-0.5C260.4,460.7,260.7,460.5,261.3,460.5L261.3,460.5z"/>
			<path class="st17" d="M267.1,464.9v1.5c0,0.4-0.1,0.6-0.3,0.8c-0.2,0.2-0.4,0.3-0.6,0.3c-0.3,0-0.5-0.1-0.6-0.3
				c-0.2-0.2-0.2-0.4-0.2-0.8v-4.9c0-0.8,0.3-1.2,0.9-1.2c0.3,0,0.5,0.1,0.6,0.3c0.1,0.2,0.2,0.5,0.2,0.8c0.2-0.4,0.4-0.6,0.6-0.8
				c0.2-0.2,0.5-0.3,0.9-0.3c0.4,0,0.7,0.1,1.1,0.3c0.3,0.2,0.5,0.4,0.5,0.7c0,0.2-0.1,0.4-0.2,0.5c-0.1,0.1-0.3,0.2-0.5,0.2
				c-0.1,0-0.2,0-0.5-0.1c-0.2-0.1-0.5-0.1-0.7-0.1c-0.3,0-0.5,0.1-0.6,0.2c-0.2,0.1-0.3,0.3-0.4,0.6c-0.1,0.3-0.1,0.6-0.2,1
				C267.1,463.9,267.1,464.4,267.1,464.9L267.1,464.9z"/>
			<path class="st17" d="M275.9,465c-0.2,0-0.3,0-0.4,0.1c-0.2,0.2-0.4,0.4-0.5,0.5c-0.1,0.1-0.3,0.2-0.4,0.3
				c-0.2,0.1-0.3,0.2-0.5,0.2c-0.2,0.1-0.4,0.1-0.6,0.1c-0.3,0-0.6-0.1-0.9-0.2c-0.3-0.2-0.5-0.4-0.6-0.7c-0.2-0.3-0.2-0.7-0.2-1.1
				h3.4c0.5,0,0.8-0.1,1.1-0.2c0.3-0.1,0.4-0.4,0.4-0.9c0-0.5-0.1-0.9-0.4-1.4c-0.2-0.5-0.6-0.8-1.1-1.1c-0.5-0.3-1.1-0.4-1.8-0.4
				c-0.5,0-1,0.1-1.4,0.3c-0.4,0.2-0.8,0.4-1.1,0.7c-0.3,0.3-0.5,0.7-0.7,1.1c-0.2,0.5-0.2,0.9-0.2,1.5c0,1.1,0.3,2,0.9,2.6
				c0.6,0.6,1.5,1,2.6,1c0.5,0,0.9-0.1,1.3-0.2c0.4-0.1,0.7-0.3,1-0.5c0.3-0.2,0.4-0.4,0.6-0.6c0.1-0.2,0.2-0.4,0.2-0.5
				c0-0.2-0.1-0.3-0.2-0.4C276.2,465.1,276.1,465,275.9,465z M272.2,462c0.3-0.3,0.6-0.4,1.1-0.4c0.5,0,0.8,0.1,1.1,0.4
				c0.3,0.3,0.4,0.7,0.5,1.3h-3.2C271.8,462.7,271.9,462.3,272.2,462z"/>
			<path class="st17" d="M283.2,465c-0.2,0-0.3,0-0.4,0.1c-0.2,0.2-0.4,0.4-0.5,0.5c-0.1,0.1-0.3,0.2-0.5,0.3
				c-0.2,0.1-0.3,0.2-0.5,0.2c-0.2,0.1-0.4,0.1-0.6,0.1c-0.3,0-0.6-0.1-0.9-0.2c-0.3-0.2-0.5-0.4-0.6-0.7c-0.2-0.3-0.2-0.7-0.3-1.1
				h3.4c0.5,0,0.8-0.1,1.1-0.2c0.3-0.1,0.4-0.4,0.4-0.9c0-0.5-0.1-0.9-0.4-1.4c-0.2-0.5-0.6-0.8-1.1-1.1c-0.5-0.3-1.1-0.4-1.8-0.4
				c-0.5,0-1,0.1-1.4,0.3c-0.4,0.2-0.8,0.4-1.1,0.7c-0.3,0.3-0.5,0.7-0.7,1.1c-0.2,0.5-0.2,0.9-0.2,1.5c0,1.1,0.3,2,1,2.6
				c0.6,0.6,1.5,1,2.6,1c0.5,0,0.9-0.1,1.3-0.2c0.4-0.1,0.7-0.3,0.9-0.5c0.3-0.2,0.4-0.4,0.6-0.6c0.1-0.2,0.2-0.4,0.2-0.5
				c0-0.2,0-0.3-0.2-0.4C283.5,465.1,283.4,465,283.2,465z M279.5,462c0.3-0.3,0.6-0.4,1.1-0.4c0.5,0,0.8,0.1,1.1,0.4
				c0.3,0.3,0.4,0.7,0.5,1.3H279C279.1,462.7,279.2,462.3,279.5,462z"/>
			<path class="st17" d="M291.5,463.7c0-0.7-0.1-1.2-0.4-1.7c-0.3-0.5-0.6-0.9-1.1-1.2c-0.5-0.3-1-0.4-1.5-0.4
				c-0.5,0-0.8,0.1-1.2,0.3c-0.4,0.2-0.7,0.5-1,0.9v-0.2c0-0.3-0.1-0.6-0.2-0.7c-0.2-0.2-0.4-0.3-0.6-0.3s-0.4,0.1-0.6,0.2
				c-0.2,0.2-0.2,0.4-0.2,0.8v7.6c0,0.4,0.1,0.7,0.2,0.9c0.1,0.2,0.3,0.3,0.7,0.3c0.6,0,0.8-0.4,0.8-1.2v-2.6
				c0.2,0.2,0.4,0.4,0.6,0.6c0.1,0.1,0.3,0.2,0.4,0.3c0.3,0.2,0.8,0.3,1.3,0.3c0.4,0,0.8-0.1,1.2-0.2c0.4-0.2,0.7-0.4,1-0.7
				c0.3-0.3,0.5-0.7,0.6-1.1c0.2-0.5,0.2-1,0.2-1.5C291.5,463.8,291.5,463.7,291.5,463.7z M289.5,465.1c-0.2,0.3-0.3,0.6-0.6,0.8
				c-0.2,0.2-0.5,0.3-0.8,0.3c-0.1,0-0.1,0-0.2,0c-0.4,0-0.8-0.2-1.1-0.6c-0.3-0.4-0.5-0.9-0.5-1.6c0-0.7,0.2-1.3,0.5-1.7
				c0.3-0.4,0.7-0.6,1.2-0.6c0.3,0,0.6,0.1,0.8,0.3c0.3,0.2,0.4,0.4,0.6,0.8c0.2,0.3,0.2,0.7,0.2,1.2c0,0.4-0.1,0.8-0.2,1.1
				C289.6,465,289.5,465,289.5,465.1z"/>
			<path class="st17" d="M293.9,460.6c-0.2-0.2-0.4-0.3-0.6-0.3c-0.3,0-0.5,0.1-0.6,0.3c-0.2,0.2-0.3,0.4-0.3,0.8v5
				c0,0.3,0.1,0.6,0.3,0.8c0.2,0.2,0.4,0.3,0.6,0.3c0.3,0,0.5-0.1,0.6-0.3c0.2-0.2,0.3-0.4,0.3-0.8v-5.1
				C294.2,461,294.1,460.7,293.9,460.6z M293.9,458c-0.2-0.2-0.4-0.2-0.6-0.2c-0.2,0-0.4,0.1-0.6,0.2c-0.2,0.2-0.3,0.4-0.3,0.6
				c0,0.3,0.1,0.5,0.3,0.6c0.2,0.2,0.4,0.2,0.6,0.2c0.2,0,0.4-0.1,0.6-0.2c0.2-0.1,0.3-0.4,0.3-0.6
				C294.2,458.3,294.1,458.1,293.9,458z"/>
			<path class="st17" d="M299.8,466.6l-1.5-2.6l-1,0.9v1.4c0,0.3-0.1,0.6-0.3,0.8c-0.2,0.2-0.4,0.3-0.6,0.3c-0.3,0-0.5-0.1-0.6-0.3
				c-0.2-0.2-0.2-0.4-0.2-0.8v-7.5c0-0.4,0.1-0.7,0.2-0.9c0.2-0.2,0.4-0.3,0.6-0.3c0.3,0,0.5,0.1,0.6,0.3c0.2,0.2,0.2,0.5,0.2,0.8
				v4.3l2-2.1c0.2-0.3,0.4-0.4,0.6-0.5c0.1-0.1,0.3-0.1,0.5-0.1c0.2,0,0.4,0.1,0.6,0.2c0.1,0.1,0.2,0.3,0.2,0.5c0,0.3-0.2,0.6-0.7,1
				l-0.9,0.9l1.8,2.8c0.1,0.2,0.2,0.4,0.3,0.5c0.1,0.1,0.1,0.2,0.1,0.3c0,0.3-0.1,0.5-0.2,0.7c-0.2,0.2-0.4,0.2-0.6,0.2
				c-0.2,0-0.4-0.1-0.5-0.2C300.2,467.2,300,467,299.8,466.6L299.8,466.6z"/>
			<path class="st17" d="M303.6,467.5c-0.3,0-0.5-0.1-0.7-0.3c-0.2-0.2-0.3-0.4-0.3-0.7c0-0.3,0.1-0.5,0.3-0.7
				c0.2-0.2,0.4-0.3,0.7-0.3c0.3,0,0.5,0.1,0.7,0.3c0.2,0.2,0.3,0.4,0.3,0.7c0,0.3-0.1,0.5-0.3,0.7
				C304.1,467.4,303.9,467.5,303.6,467.5L303.6,467.5z"/>
			<path class="st17" d="M312.4,465.3c0,0.2-0.1,0.5-0.2,0.7c-0.1,0.3-0.3,0.5-0.6,0.7c-0.3,0.2-0.6,0.4-1,0.5
				c-0.4,0.1-0.9,0.2-1.4,0.2c-1.1,0-1.9-0.3-2.5-0.9c-0.6-0.6-0.9-1.5-0.9-2.5c0-0.7,0.1-1.4,0.4-1.9c0.3-0.6,0.7-1,1.2-1.3
				c0.5-0.3,1.2-0.5,1.9-0.5c0.5,0,0.9,0.1,1.3,0.2c0.4,0.1,0.7,0.3,1,0.5c0.3,0.2,0.5,0.4,0.6,0.7c0.1,0.2,0.2,0.5,0.2,0.7
				c0,0.2-0.1,0.4-0.2,0.5c-0.2,0.1-0.3,0.2-0.6,0.2c-0.1,0-0.3,0-0.4-0.1c-0.1-0.1-0.2-0.2-0.3-0.4c-0.2-0.3-0.4-0.6-0.7-0.7
				c-0.2-0.2-0.5-0.2-0.9-0.2c-0.5,0-0.9,0.2-1.3,0.6c-0.3,0.4-0.5,1-0.5,1.7c0,0.3,0,0.6,0.1,0.9c0.1,0.3,0.2,0.5,0.4,0.7
				c0.2,0.2,0.3,0.3,0.6,0.4c0.2,0.1,0.5,0.2,0.7,0.2c0.4,0,0.7-0.1,0.9-0.2c0.3-0.2,0.5-0.4,0.7-0.7c0.1-0.2,0.2-0.4,0.3-0.5
				c0.1-0.1,0.3-0.2,0.5-0.2c0.2,0,0.4,0.1,0.5,0.2C312.3,464.9,312.4,465.1,312.4,465.3L312.4,465.3z"/>
			<path class="st17" d="M319.7,462.4c-0.2-0.4-0.4-0.8-0.7-1.1c-0.3-0.3-0.7-0.6-1.1-0.7c-0.4-0.2-0.9-0.3-1.5-0.3
				c-0.5,0-1,0.1-1.4,0.3c-0.4,0.2-0.8,0.4-1.1,0.7c-0.3,0.3-0.5,0.7-0.7,1.1c-0.2,0.4-0.2,0.9-0.2,1.5c0,0.5,0.1,1,0.2,1.5
				c0.2,0.4,0.4,0.8,0.7,1.1c0.3,0.3,0.7,0.6,1.1,0.7c0.4,0.2,0.9,0.3,1.4,0.3c0.5,0,1-0.1,1.5-0.3c0.4-0.2,0.8-0.4,1.1-0.7
				c0.3-0.3,0.5-0.7,0.7-1.1c0.2-0.4,0.2-0.9,0.2-1.5C320,463.3,319.9,462.9,319.7,462.4z M317.7,465.5c-0.3,0.4-0.7,0.6-1.3,0.6
				c-0.4,0-0.7-0.1-0.9-0.3c-0.3-0.2-0.5-0.5-0.6-0.8c-0.1-0.3-0.2-0.7-0.2-1.2c0-0.5,0.1-0.9,0.2-1.2c0.1-0.3,0.3-0.6,0.6-0.8
				c0.3-0.2,0.6-0.3,0.9-0.3c0.5,0,1,0.2,1.3,0.6c0.3,0.4,0.5,1,0.5,1.7C318.2,464.6,318,465.1,317.7,465.5z"/>
			<path class="st17" d="M326.7,464v2.3c0,0.4-0.1,0.6-0.3,0.8c-0.2,0.2-0.4,0.3-0.7,0.3c-0.3,0-0.5-0.1-0.6-0.3
				c-0.2-0.2-0.3-0.5-0.3-0.8v-2.8c0-0.4,0-0.8,0-1c0-0.2-0.1-0.4-0.2-0.6c-0.1-0.2-0.3-0.2-0.6-0.2c-0.6,0-1,0.2-1.1,0.6
				c-0.2,0.4-0.3,1-0.3,1.7v2.4c0,0.4-0.1,0.6-0.2,0.8c-0.2,0.2-0.4,0.3-0.7,0.3c-0.3,0-0.5-0.1-0.7-0.3c-0.2-0.2-0.3-0.5-0.3-0.8
				v-5c0-0.3,0.1-0.6,0.2-0.8c0.2-0.2,0.4-0.3,0.6-0.3c0.2,0,0.4,0.1,0.6,0.2c0.2,0.2,0.2,0.4,0.2,0.7v0.2c0.3-0.4,0.6-0.6,1-0.8
				c0.4-0.2,0.7-0.3,1.2-0.3c0.4,0,0.8,0.1,1.1,0.3c0.3,0.2,0.6,0.4,0.8,0.8c0.3-0.4,0.6-0.6,1-0.8c0.3-0.2,0.7-0.3,1.1-0.3
				c0.5,0,0.9,0.1,1.2,0.3c0.3,0.2,0.6,0.5,0.8,0.8c0.1,0.3,0.2,0.8,0.2,1.5v3.4c0,0.4-0.1,0.6-0.2,0.8c-0.2,0.2-0.4,0.3-0.7,0.3
				c-0.3,0-0.5-0.1-0.7-0.3c-0.2-0.2-0.3-0.5-0.3-0.8v-3c0-0.4,0-0.7,0-0.9c0-0.2-0.1-0.4-0.3-0.6c-0.1-0.2-0.4-0.2-0.6-0.2
				c-0.2,0-0.5,0.1-0.7,0.2c-0.2,0.1-0.4,0.3-0.5,0.6C326.7,462.7,326.7,463.3,326.7,464L326.7,464z"/>
		</g>
		<g>
			<path class="st17" d="M244.9,463.5C244.9,463.5,244.9,463.4,244.9,463.5C244.9,463.4,244.9,463.5,244.9,463.5z"/>
			<path class="st17" d="M245,464C245,464,245,464,245,464c0-0.2-0.1-0.3-0.1-0.5C244.9,463.7,244.9,463.9,245,464z"/>
			<path class="st17" d="M245.5,465.6C245.5,465.6,245.5,465.6,245.5,465.6C245.5,465.6,245.5,465.6,245.5,465.6z"/>
			<path class="st17" d="M245.5,465.5C245.5,465.5,245.5,465.5,245.5,465.5C245.5,465.5,245.5,465.5,245.5,465.5z"/>
			<path class="st17" d="M245.1,464.6c0.1,0.3,0.2,0.5,0.3,0.8C245.3,465.2,245.2,464.9,245.1,464.6
				C245.1,464.6,245.1,464.6,245.1,464.6z"/>
			<path class="st17" d="M251.7,456.7c0.3,0,0.6,0,0.9,0.1l0.1-0.5c0,0-0.8-0.2-1.8-0.2l-0.1-0.3c0.3-0.1,0.6-0.4,0.6-0.7
				c0-0.4-0.3-0.7-0.7-0.7c-0.4,0-0.7,0.3-0.7,0.7c0,0.3,0.2,0.6,0.6,0.7l0.1,0.3c-1.1,0.2-2,0.6-2,0.6l0.2,0.5
				c0.7-0.2,1.3-0.4,1.8-0.4C251,456.7,251.4,456.7,251.7,456.7z"/>
			<path class="st17" d="M245.5,459.3L245.5,459.3c0,0,0.1-0.1,0.1-0.1l-0.2-0.2l-0.3-0.2c0,0-0.5,0.5-0.9,1.4c0,0,0-0.1-0.1-0.1
				c-0.1-0.1-0.3-0.2-0.5-0.2c0,0,0,0,0,0c-0.1,0-0.2,0-0.3-0.1c0.1-0.1,0.1-0.2,0.1-0.3c0-0.2-0.2-0.5-0.5-0.5
				c-0.2,0-0.5,0.2-0.5,0.5c0,0.3,0.2,0.5,0.5,0.5c0,0,0.1,0,0.1,0c0.1,0.1,0.3,0.2,0.5,0.2c0.1,0,0.2,0,0.3,0.1
				c0.1,0.1,0.1,0.2,0.1,0.3c0,0,0,0,0,0c-0.3,0.8-0.2,1.8-0.2,1.8l0.7,0c0-0.4,0.1-1,0.3-1.5C245.1,460,245.5,459.4,245.5,459.3z"
				/>
			<path class="st17" d="M257.9,457.3c-0.2,0-0.5,0.2-0.5,0.5c0,0,0,0.1,0,0.1c-0.1,0.1-0.2,0.3-0.2,0.5c0,0.1,0,0.2-0.1,0.3
				c-0.1,0.1-0.1,0.1-0.2,0.1c-0.5-0.7-1.2-1.2-1.2-1.2l-0.5,0.6c0.4,0.4,0.8,0.8,1.2,1.3c0.3,0.4,0.5,0.9,0.8,1.4l0.7-0.3
				c0,0-0.3-0.8-0.8-1.5c0.1,0,0.2-0.1,0.2-0.1c0.1-0.1,0.2-0.3,0.2-0.5c0-0.1,0-0.2,0.1-0.3c0.1,0.1,0.2,0.1,0.3,0.1
				c0.3,0,0.5-0.2,0.5-0.5C258.4,457.5,258.2,457.3,257.9,457.3z"/>
			<path class="st17" d="M256.1,463.6c-1,0.5-2.5,1.1-4.6,1.4c-0.8,0.1-1.6,0.2-2.3,0.2c-0.9,0-1.8-0.1-2.4-0.2
				c-0.7-0.1-1.3-0.2-1.6-0.3c0.1,0.3,0.2,0.5,0.3,0.8c0,0,0,0,0,0c0,0,0,0.1,0,0.1c0,0,0,0.1,0,0.1c0,0,0,0,0,0
				c0.2,0.4,0.5,0.7,0.7,1c1,1.1,2,1.2,2,1.2l0,0l0,0c0,0,0.9,0.3,2.2,0.3c1.3,0,2.6-0.3,3.8-0.8c0.9-0.5,1.8-1.2,2.2-1.8
				c0.3-0.5,0.6-1,0.7-1.6c0.1-0.3,0.1-0.8,0.1-1.2C257.1,463,256.7,463.3,256.1,463.6z"/>
			<path class="st17" d="M256.1,459.7c-1.3-1.9-2.8-2.4-3.6-2.6c-0.3,0-0.5-0.1-0.8-0.1c-0.3,0-0.7,0-1.2,0.1
				c-0.5,0.1-1.1,0.2-1.7,0.4c-0.9,0.3-1.7,0.8-2.4,1.4l0,0c-0.1,0.1-0.3,0.3-0.5,0.6c0,0-0.4,0.6-0.8,1.5c-0.3,0.7-0.2,1.7-0.2,1.7
				c0,0.2,0,0.5,0,0.7c0,0,0,0,0,0c0,0,0,0,0,0.1c0,0.2,0.1,0.3,0.1,0.5c0.5,0.1,3.3,0.8,6.5,0.3c2-0.3,3.5-0.9,4.4-1.3
				c0.8-0.4,1.3-0.7,1.4-0.8C257.1,461.5,256.6,460.4,256.1,459.7z M248.6,462.9c-1.1,0-1.9-0.8-1.9-1.9c0-1,0.8-1.9,1.9-1.9
				c1.1,0,1.9,0.8,1.9,1.9C250.5,462,249.6,462.9,248.6,462.9z M254.1,461.5c-0.7,0-1.2-0.5-1.2-1.2c0-0.7,0.5-1.2,1.2-1.2
				c0.6,0,1.2,0.5,1.2,1.2C255.3,460.9,254.8,461.5,254.1,461.5z"/>
		</g>
	</g>
</g>
</svg>
